<svg xmlns="http://www.w3.org/2000/svg" xmlns:xlink="http://www.w3.org/1999/xlink" width="500" zoomAndPan="magnify" viewBox="0 0 375 374.999991" height="500" preserveAspectRatio="xMidYMid meet" version="1.0"><defs><g/><clipPath id="cf0d32ddd0"><path d="M 298 110.640625 L 308.855469 110.640625 L 308.855469 124 L 298 124 Z M 298 110.640625 " clip-rule="nonzero"/></clipPath><clipPath id="f2c3071acc"><path d="M 75 110.640625 L 299 110.640625 L 299 114 L 75 114 Z M 75 110.640625 " clip-rule="nonzero"/></clipPath><clipPath id="cfd1f04d6a"><path d="M 65.855469 110.640625 L 76 110.640625 L 76 124 L 65.855469 124 Z M 65.855469 110.640625 " clip-rule="nonzero"/></clipPath><clipPath id="6f17cb1ce8"><path d="M 65.855469 123 L 69 123 L 69 251 L 65.855469 251 Z M 65.855469 123 " clip-rule="nonzero"/></clipPath><clipPath id="38d1790b5f"><path d="M 65.855469 250 L 76 250 L 76 264.390625 L 65.855469 264.390625 Z M 65.855469 250 " clip-rule="nonzero"/></clipPath><clipPath id="5f707f8a0e"><path d="M 75 261 L 299 261 L 299 264.390625 L 75 264.390625 Z M 75 261 " clip-rule="nonzero"/></clipPath><clipPath id="744f118061"><path d="M 306 123 L 308.855469 123 L 308.855469 251 L 306 251 Z M 306 123 " clip-rule="nonzero"/></clipPath><clipPath id="15df768ef1"><path d="M 298 250 L 308.855469 250 L 308.855469 264.390625 L 298 264.390625 Z M 298 250 " clip-rule="nonzero"/></clipPath><clipPath id="ae49c3bd4b"><path d="M 216.917969 164.03125 L 277.667969 164.03125 L 277.667969 170 L 216.917969 170 Z M 216.917969 164.03125 " clip-rule="nonzero"/></clipPath></defs><g clip-path="url(#cf0d32ddd0)"><path fill="#2c3b43" d="M 306.484375 113.691406 L 306.484375 123.8125 L 309.496094 123.8125 L 309.496094 110.679688 L 298.757812 110.679688 L 298.757812 113.691406 Z M 306.484375 113.691406 " fill-opacity="1" fill-rule="nonzero"/></g><g clip-path="url(#f2c3071acc)"><path fill="#2c3b43" d="M 298.757812 110.679688 L 298.757812 113.691406 L 75.929688 113.691406 L 75.929688 110.679688 Z M 298.757812 110.679688 " fill-opacity="1" fill-rule="nonzero"/></g><g clip-path="url(#cfd1f04d6a)"><path fill="#2c3b43" d="M 68.5 113.691406 L 75.929688 113.691406 L 75.929688 110.679688 L 65.488281 110.679688 L 65.488281 123.8125 L 68.5 123.8125 Z M 68.5 113.691406 " fill-opacity="1" fill-rule="nonzero"/></g><g clip-path="url(#6f17cb1ce8)"><path fill="#2c3b43" d="M 68.5 123.8125 L 68.5 250.574219 L 65.488281 250.574219 L 65.488281 123.8125 Z M 68.5 123.8125 " fill-opacity="1" fill-rule="nonzero"/></g><g clip-path="url(#38d1790b5f)"><path fill="#2c3b43" d="M 68.5 261.300781 L 68.5 250.574219 L 65.488281 250.574219 L 65.488281 264.316406 L 75.929688 264.316406 L 75.929688 261.300781 Z M 68.5 261.300781 " fill-opacity="1" fill-rule="nonzero"/></g><g clip-path="url(#5f707f8a0e)"><path fill="#2c3b43" d="M 298.757812 261.300781 L 298.757812 264.316406 L 75.929688 264.316406 L 75.929688 261.300781 Z M 298.757812 261.300781 " fill-opacity="1" fill-rule="nonzero"/></g><g clip-path="url(#744f118061)"><path fill="#2c3b43" d="M 309.496094 123.8125 L 309.496094 250.574219 L 306.484375 250.574219 L 306.484375 123.8125 Z M 309.496094 123.8125 " fill-opacity="1" fill-rule="nonzero"/></g><g clip-path="url(#15df768ef1)"><path fill="#2c3b43" d="M 306.484375 261.300781 L 298.757812 261.300781 L 298.757812 264.316406 L 309.496094 264.316406 L 309.496094 250.574219 L 306.484375 250.574219 Z M 306.484375 261.300781 " fill-opacity="1" fill-rule="nonzero"/></g><g fill="#2c3b43" fill-opacity="1"><g transform="translate(97.704365, 173.357039)"><g><path d="M 7.03125 0.25 C 6.175781 0.25 5.382812 0.09375 4.65625 -0.21875 C 3.9375 -0.539062 3.3125 -1.003906 2.78125 -1.609375 C 2.25 -2.210938 1.832031 -2.953125 1.53125 -3.828125 C 1.226562 -4.710938 1.078125 -5.710938 1.078125 -6.828125 C 1.078125 -7.921875 1.226562 -8.90625 1.53125 -9.78125 C 1.84375 -10.65625 2.269531 -11.394531 2.8125 -12 C 3.351562 -12.613281 3.988281 -13.082031 4.71875 -13.40625 C 5.457031 -13.738281 6.265625 -13.90625 7.140625 -13.90625 C 7.972656 -13.90625 8.703125 -13.734375 9.328125 -13.390625 C 9.960938 -13.054688 10.484375 -12.664062 10.890625 -12.21875 L 9.953125 -11.09375 C 9.585938 -11.476562 9.175781 -11.789062 8.71875 -12.03125 C 8.257812 -12.269531 7.738281 -12.390625 7.15625 -12.390625 C 6.507812 -12.390625 5.921875 -12.257812 5.390625 -12 C 4.859375 -11.738281 4.40625 -11.367188 4.03125 -10.890625 C 3.65625 -10.410156 3.367188 -9.832031 3.171875 -9.15625 C 2.972656 -8.476562 2.875 -7.71875 2.875 -6.875 C 2.875 -6.007812 2.972656 -5.234375 3.171875 -4.546875 C 3.367188 -3.859375 3.648438 -3.269531 4.015625 -2.78125 C 4.378906 -2.300781 4.820312 -1.925781 5.34375 -1.65625 C 5.863281 -1.394531 6.445312 -1.265625 7.09375 -1.265625 C 7.757812 -1.265625 8.34375 -1.398438 8.84375 -1.671875 C 9.34375 -1.941406 9.816406 -2.320312 10.265625 -2.8125 L 11.21875 -1.734375 C 10.675781 -1.109375 10.0625 -0.617188 9.375 -0.265625 C 8.695312 0.078125 7.914062 0.25 7.03125 0.25 Z M 7.03125 0.25 "/></g></g></g><g fill="#2c3b43" fill-opacity="1"><g transform="translate(109.580313, 173.357039)"><g><path d="M 4.21875 -7.640625 L 3.578125 -5.5625 L 7.6875 -5.5625 L 7.03125 -7.640625 C 6.78125 -8.398438 6.546875 -9.15625 6.328125 -9.90625 C 6.109375 -10.664062 5.882812 -11.441406 5.65625 -12.234375 L 5.578125 -12.234375 C 5.367188 -11.441406 5.148438 -10.664062 4.921875 -9.90625 C 4.703125 -9.15625 4.46875 -8.398438 4.21875 -7.640625 Z M 0.0625 0 L 4.6875 -13.65625 L 6.640625 -13.65625 L 11.265625 0 L 9.40625 0 L 8.109375 -4.15625 L 3.140625 -4.15625 L 1.828125 0 Z M 0.0625 0 "/></g></g></g><g fill="#2c3b43" fill-opacity="1"><g transform="translate(120.894712, 173.357039)"><g><path d="M 5.65625 0.25 C 4.695312 0.25 3.804688 0.0703125 2.984375 -0.28125 C 2.171875 -0.644531 1.46875 -1.140625 0.875 -1.765625 L 1.921875 -2.96875 C 2.398438 -2.457031 2.96875 -2.046875 3.625 -1.734375 C 4.289062 -1.421875 4.976562 -1.265625 5.6875 -1.265625 C 6.582031 -1.265625 7.28125 -1.46875 7.78125 -1.875 C 8.28125 -2.289062 8.53125 -2.832031 8.53125 -3.5 C 8.53125 -3.84375 8.46875 -4.132812 8.34375 -4.375 C 8.226562 -4.625 8.070312 -4.832031 7.875 -5 C 7.675781 -5.175781 7.4375 -5.332031 7.15625 -5.46875 C 6.882812 -5.613281 6.585938 -5.757812 6.265625 -5.90625 L 4.3125 -6.765625 C 3.988281 -6.898438 3.660156 -7.066406 3.328125 -7.265625 C 2.992188 -7.460938 2.695312 -7.695312 2.4375 -7.96875 C 2.175781 -8.25 1.960938 -8.578125 1.796875 -8.953125 C 1.628906 -9.335938 1.546875 -9.78125 1.546875 -10.28125 C 1.546875 -10.789062 1.648438 -11.269531 1.859375 -11.71875 C 2.078125 -12.164062 2.375 -12.550781 2.75 -12.875 C 3.132812 -13.195312 3.585938 -13.445312 4.109375 -13.625 C 4.628906 -13.8125 5.203125 -13.90625 5.828125 -13.90625 C 6.648438 -13.90625 7.40625 -13.75 8.09375 -13.4375 C 8.789062 -13.125 9.378906 -12.71875 9.859375 -12.21875 L 8.921875 -11.09375 C 8.503906 -11.5 8.039062 -11.816406 7.53125 -12.046875 C 7.03125 -12.273438 6.460938 -12.390625 5.828125 -12.390625 C 5.066406 -12.390625 4.453125 -12.210938 3.984375 -11.859375 C 3.515625 -11.503906 3.28125 -11.015625 3.28125 -10.390625 C 3.28125 -10.054688 3.347656 -9.773438 3.484375 -9.546875 C 3.617188 -9.316406 3.796875 -9.113281 4.015625 -8.9375 C 4.234375 -8.757812 4.472656 -8.601562 4.734375 -8.46875 C 5.003906 -8.34375 5.28125 -8.222656 5.5625 -8.109375 L 7.5 -7.28125 C 7.882812 -7.113281 8.25 -6.921875 8.59375 -6.703125 C 8.9375 -6.492188 9.234375 -6.242188 9.484375 -5.953125 C 9.734375 -5.671875 9.929688 -5.335938 10.078125 -4.953125 C 10.222656 -4.578125 10.296875 -4.140625 10.296875 -3.640625 C 10.296875 -3.097656 10.1875 -2.59375 9.96875 -2.125 C 9.757812 -1.65625 9.453125 -1.242188 9.046875 -0.890625 C 8.648438 -0.535156 8.164062 -0.253906 7.59375 -0.046875 C 7.03125 0.148438 6.382812 0.25 5.65625 0.25 Z M 5.65625 0.25 "/></g></g></g><g fill="#2c3b43" fill-opacity="1"><g transform="translate(132.001119, 173.357039)"><g><path d="M 5.65625 0.25 C 4.695312 0.25 3.804688 0.0703125 2.984375 -0.28125 C 2.171875 -0.644531 1.46875 -1.140625 0.875 -1.765625 L 1.921875 -2.96875 C 2.398438 -2.457031 2.96875 -2.046875 3.625 -1.734375 C 4.289062 -1.421875 4.976562 -1.265625 5.6875 -1.265625 C 6.582031 -1.265625 7.28125 -1.46875 7.78125 -1.875 C 8.28125 -2.289062 8.53125 -2.832031 8.53125 -3.5 C 8.53125 -3.84375 8.46875 -4.132812 8.34375 -4.375 C 8.226562 -4.625 8.070312 -4.832031 7.875 -5 C 7.675781 -5.175781 7.4375 -5.332031 7.15625 -5.46875 C 6.882812 -5.613281 6.585938 -5.757812 6.265625 -5.90625 L 4.3125 -6.765625 C 3.988281 -6.898438 3.660156 -7.066406 3.328125 -7.265625 C 2.992188 -7.460938 2.695312 -7.695312 2.4375 -7.96875 C 2.175781 -8.25 1.960938 -8.578125 1.796875 -8.953125 C 1.628906 -9.335938 1.546875 -9.78125 1.546875 -10.28125 C 1.546875 -10.789062 1.648438 -11.269531 1.859375 -11.71875 C 2.078125 -12.164062 2.375 -12.550781 2.75 -12.875 C 3.132812 -13.195312 3.585938 -13.445312 4.109375 -13.625 C 4.628906 -13.8125 5.203125 -13.90625 5.828125 -13.90625 C 6.648438 -13.90625 7.40625 -13.75 8.09375 -13.4375 C 8.789062 -13.125 9.378906 -12.71875 9.859375 -12.21875 L 8.921875 -11.09375 C 8.503906 -11.5 8.039062 -11.816406 7.53125 -12.046875 C 7.03125 -12.273438 6.460938 -12.390625 5.828125 -12.390625 C 5.066406 -12.390625 4.453125 -12.210938 3.984375 -11.859375 C 3.515625 -11.503906 3.28125 -11.015625 3.28125 -10.390625 C 3.28125 -10.054688 3.347656 -9.773438 3.484375 -9.546875 C 3.617188 -9.316406 3.796875 -9.113281 4.015625 -8.9375 C 4.234375 -8.757812 4.472656 -8.601562 4.734375 -8.46875 C 5.003906 -8.34375 5.28125 -8.222656 5.5625 -8.109375 L 7.5 -7.28125 C 7.882812 -7.113281 8.25 -6.921875 8.59375 -6.703125 C 8.9375 -6.492188 9.234375 -6.242188 9.484375 -5.953125 C 9.734375 -5.671875 9.929688 -5.335938 10.078125 -4.953125 C 10.222656 -4.578125 10.296875 -4.140625 10.296875 -3.640625 C 10.296875 -3.097656 10.1875 -2.59375 9.96875 -2.125 C 9.757812 -1.65625 9.453125 -1.242188 9.046875 -0.890625 C 8.648438 -0.535156 8.164062 -0.253906 7.59375 -0.046875 C 7.03125 0.148438 6.382812 0.25 5.65625 0.25 Z M 5.65625 0.25 "/></g></g></g><g fill="#2c3b43" fill-opacity="1"><g transform="translate(143.107525, 173.357039)"><g><path d="M 1.875 0 L 1.875 -13.65625 L 9.734375 -13.65625 L 9.734375 -12.203125 L 3.59375 -12.203125 L 3.59375 -7.90625 L 8.78125 -7.90625 L 8.78125 -6.4375 L 3.59375 -6.4375 L 3.59375 -1.484375 L 9.953125 -1.484375 L 9.953125 0 Z M 1.875 0 "/></g></g></g><g fill="#2c3b43" fill-opacity="1"><g transform="translate(154.068339, 173.357039)"><g><path d="M 6.71875 0.25 C 6.03125 0.25 5.382812 0.148438 4.78125 -0.046875 C 4.175781 -0.253906 3.65625 -0.585938 3.21875 -1.046875 C 2.78125 -1.515625 2.4375 -2.125 2.1875 -2.875 C 1.9375 -3.625 1.8125 -4.546875 1.8125 -5.640625 L 1.8125 -13.65625 L 3.53125 -13.65625 L 3.53125 -5.59375 C 3.53125 -4.78125 3.613281 -4.09375 3.78125 -3.53125 C 3.945312 -2.976562 4.171875 -2.535156 4.453125 -2.203125 C 4.742188 -1.867188 5.082031 -1.628906 5.46875 -1.484375 C 5.863281 -1.335938 6.28125 -1.265625 6.71875 -1.265625 C 7.175781 -1.265625 7.597656 -1.335938 7.984375 -1.484375 C 8.378906 -1.628906 8.722656 -1.867188 9.015625 -2.203125 C 9.304688 -2.535156 9.535156 -2.976562 9.703125 -3.53125 C 9.867188 -4.09375 9.953125 -4.78125 9.953125 -5.59375 L 9.953125 -13.65625 L 11.609375 -13.65625 L 11.609375 -5.640625 C 11.609375 -4.546875 11.484375 -3.625 11.234375 -2.875 C 10.984375 -2.125 10.640625 -1.515625 10.203125 -1.046875 C 9.765625 -0.585938 9.25 -0.253906 8.65625 -0.046875 C 8.0625 0.148438 7.414062 0.25 6.71875 0.25 Z M 6.71875 0.25 "/></g></g></g><g fill="#2c3b43" fill-opacity="1"><g transform="translate(167.483385, 173.357039)"><g><path d="M 5.65625 0.25 C 4.695312 0.25 3.804688 0.0703125 2.984375 -0.28125 C 2.171875 -0.644531 1.46875 -1.140625 0.875 -1.765625 L 1.921875 -2.96875 C 2.398438 -2.457031 2.96875 -2.046875 3.625 -1.734375 C 4.289062 -1.421875 4.976562 -1.265625 5.6875 -1.265625 C 6.582031 -1.265625 7.28125 -1.46875 7.78125 -1.875 C 8.28125 -2.289062 8.53125 -2.832031 8.53125 -3.5 C 8.53125 -3.84375 8.46875 -4.132812 8.34375 -4.375 C 8.226562 -4.625 8.070312 -4.832031 7.875 -5 C 7.675781 -5.175781 7.4375 -5.332031 7.15625 -5.46875 C 6.882812 -5.613281 6.585938 -5.757812 6.265625 -5.90625 L 4.3125 -6.765625 C 3.988281 -6.898438 3.660156 -7.066406 3.328125 -7.265625 C 2.992188 -7.460938 2.695312 -7.695312 2.4375 -7.96875 C 2.175781 -8.25 1.960938 -8.578125 1.796875 -8.953125 C 1.628906 -9.335938 1.546875 -9.78125 1.546875 -10.28125 C 1.546875 -10.789062 1.648438 -11.269531 1.859375 -11.71875 C 2.078125 -12.164062 2.375 -12.550781 2.75 -12.875 C 3.132812 -13.195312 3.585938 -13.445312 4.109375 -13.625 C 4.628906 -13.8125 5.203125 -13.90625 5.828125 -13.90625 C 6.648438 -13.90625 7.40625 -13.75 8.09375 -13.4375 C 8.789062 -13.125 9.378906 -12.71875 9.859375 -12.21875 L 8.921875 -11.09375 C 8.503906 -11.5 8.039062 -11.816406 7.53125 -12.046875 C 7.03125 -12.273438 6.460938 -12.390625 5.828125 -12.390625 C 5.066406 -12.390625 4.453125 -12.210938 3.984375 -11.859375 C 3.515625 -11.503906 3.28125 -11.015625 3.28125 -10.390625 C 3.28125 -10.054688 3.347656 -9.773438 3.484375 -9.546875 C 3.617188 -9.316406 3.796875 -9.113281 4.015625 -8.9375 C 4.234375 -8.757812 4.472656 -8.601562 4.734375 -8.46875 C 5.003906 -8.34375 5.28125 -8.222656 5.5625 -8.109375 L 7.5 -7.28125 C 7.882812 -7.113281 8.25 -6.921875 8.59375 -6.703125 C 8.9375 -6.492188 9.234375 -6.242188 9.484375 -5.953125 C 9.734375 -5.671875 9.929688 -5.335938 10.078125 -4.953125 C 10.222656 -4.578125 10.296875 -4.140625 10.296875 -3.640625 C 10.296875 -3.097656 10.1875 -2.59375 9.96875 -2.125 C 9.757812 -1.65625 9.453125 -1.242188 9.046875 -0.890625 C 8.648438 -0.535156 8.164062 -0.253906 7.59375 -0.046875 C 7.03125 0.148438 6.382812 0.25 5.65625 0.25 Z M 5.65625 0.25 "/></g></g></g><g fill="#2c3b43" fill-opacity="1"><g transform="translate(97.704365, 195.934731)"><g><path d="M 1.875 0 L 1.875 -13.65625 L 5.28125 -13.65625 C 7.394531 -13.65625 9 -13.070312 10.09375 -11.90625 C 11.1875 -10.738281 11.734375 -9.066406 11.734375 -6.890625 C 11.734375 -5.804688 11.59375 -4.835938 11.3125 -3.984375 C 11.039062 -3.128906 10.632812 -2.40625 10.09375 -1.8125 C 9.550781 -1.226562 8.882812 -0.78125 8.09375 -0.46875 C 7.300781 -0.15625 6.394531 0 5.375 0 Z M 3.59375 -1.421875 L 5.15625 -1.421875 C 6.757812 -1.421875 7.957031 -1.894531 8.75 -2.84375 C 9.550781 -3.800781 9.953125 -5.148438 9.953125 -6.890625 C 9.953125 -8.617188 9.550781 -9.941406 8.75 -10.859375 C 7.957031 -11.773438 6.757812 -12.234375 5.15625 -12.234375 L 3.59375 -12.234375 Z M 3.59375 -1.421875 "/></g></g></g><g fill="#2c3b43" fill-opacity="1"><g transform="translate(110.495447, 195.934731)"><g><path d="M 1.875 0 L 1.875 -13.65625 L 9.734375 -13.65625 L 9.734375 -12.203125 L 3.59375 -12.203125 L 3.59375 -7.90625 L 8.78125 -7.90625 L 8.78125 -6.4375 L 3.59375 -6.4375 L 3.59375 -1.484375 L 9.953125 -1.484375 L 9.953125 0 Z M 1.875 0 "/></g></g></g><g fill="#2c3b43" fill-opacity="1"><g transform="translate(121.456261, 195.934731)"><g><path d="M 1.875 0 L 1.875 -13.65625 L 3.65625 -13.65625 L 8.59375 -5.078125 L 10.078125 -2.25 L 10.15625 -2.25 C 10.113281 -2.9375 10.066406 -3.648438 10.015625 -4.390625 C 9.972656 -5.140625 9.953125 -5.875 9.953125 -6.59375 L 9.953125 -13.65625 L 11.59375 -13.65625 L 11.59375 0 L 9.796875 0 L 4.84375 -8.59375 L 3.375 -11.40625 L 3.28125 -11.40625 C 3.34375 -10.707031 3.394531 -10 3.4375 -9.28125 C 3.488281 -8.570312 3.515625 -7.859375 3.515625 -7.140625 L 3.515625 0 Z M 1.875 0 "/></g></g></g><g fill="#2c3b43" fill-opacity="1"><g transform="translate(134.912902, 195.934731)"><g><path d="M 1.875 0 L 1.875 -13.65625 L 3.59375 -13.65625 L 3.59375 0 Z M 1.875 0 "/></g></g></g><g fill="#2c3b43" fill-opacity="1"><g transform="translate(140.382914, 195.934731)"><g><path d="M 5.65625 0.25 C 4.695312 0.25 3.804688 0.0703125 2.984375 -0.28125 C 2.171875 -0.644531 1.46875 -1.140625 0.875 -1.765625 L 1.921875 -2.96875 C 2.398438 -2.457031 2.96875 -2.046875 3.625 -1.734375 C 4.289062 -1.421875 4.976562 -1.265625 5.6875 -1.265625 C 6.582031 -1.265625 7.28125 -1.46875 7.78125 -1.875 C 8.28125 -2.289062 8.53125 -2.832031 8.53125 -3.5 C 8.53125 -3.84375 8.46875 -4.132812 8.34375 -4.375 C 8.226562 -4.625 8.070312 -4.832031 7.875 -5 C 7.675781 -5.175781 7.4375 -5.332031 7.15625 -5.46875 C 6.882812 -5.613281 6.585938 -5.757812 6.265625 -5.90625 L 4.3125 -6.765625 C 3.988281 -6.898438 3.660156 -7.066406 3.328125 -7.265625 C 2.992188 -7.460938 2.695312 -7.695312 2.4375 -7.96875 C 2.175781 -8.25 1.960938 -8.578125 1.796875 -8.953125 C 1.628906 -9.335938 1.546875 -9.78125 1.546875 -10.28125 C 1.546875 -10.789062 1.648438 -11.269531 1.859375 -11.71875 C 2.078125 -12.164062 2.375 -12.550781 2.75 -12.875 C 3.132812 -13.195312 3.585938 -13.445312 4.109375 -13.625 C 4.628906 -13.8125 5.203125 -13.90625 5.828125 -13.90625 C 6.648438 -13.90625 7.40625 -13.75 8.09375 -13.4375 C 8.789062 -13.125 9.378906 -12.71875 9.859375 -12.21875 L 8.921875 -11.09375 C 8.503906 -11.5 8.039062 -11.816406 7.53125 -12.046875 C 7.03125 -12.273438 6.460938 -12.390625 5.828125 -12.390625 C 5.066406 -12.390625 4.453125 -12.210938 3.984375 -11.859375 C 3.515625 -11.503906 3.28125 -11.015625 3.28125 -10.390625 C 3.28125 -10.054688 3.347656 -9.773438 3.484375 -9.546875 C 3.617188 -9.316406 3.796875 -9.113281 4.015625 -8.9375 C 4.234375 -8.757812 4.472656 -8.601562 4.734375 -8.46875 C 5.003906 -8.34375 5.28125 -8.222656 5.5625 -8.109375 L 7.5 -7.28125 C 7.882812 -7.113281 8.25 -6.921875 8.59375 -6.703125 C 8.9375 -6.492188 9.234375 -6.242188 9.484375 -5.953125 C 9.734375 -5.671875 9.929688 -5.335938 10.078125 -4.953125 C 10.222656 -4.578125 10.296875 -4.140625 10.296875 -3.640625 C 10.296875 -3.097656 10.1875 -2.59375 9.96875 -2.125 C 9.757812 -1.65625 9.453125 -1.242188 9.046875 -0.890625 C 8.648438 -0.535156 8.164062 -0.253906 7.59375 -0.046875 C 7.03125 0.148438 6.382812 0.25 5.65625 0.25 Z M 5.65625 0.25 "/></g></g></g><g fill="#2c3b43" fill-opacity="1"><g transform="translate(192.541109, 215.435998)"><g><path d="M 2.609375 0.09375 C 2.285156 0.09375 1.988281 0.0351562 1.71875 -0.078125 C 1.457031 -0.203125 1.226562 -0.375 1.03125 -0.59375 C 0.832031 -0.820312 0.675781 -1.097656 0.5625 -1.421875 C 0.457031 -1.742188 0.40625 -2.113281 0.40625 -2.53125 C 0.40625 -2.9375 0.457031 -3.300781 0.5625 -3.625 C 0.675781 -3.945312 0.832031 -4.21875 1.03125 -4.4375 C 1.238281 -4.664062 1.476562 -4.835938 1.75 -4.953125 C 2.019531 -5.078125 2.316406 -5.140625 2.640625 -5.140625 C 2.953125 -5.140625 3.222656 -5.078125 3.453125 -4.953125 C 3.691406 -4.828125 3.882812 -4.679688 4.03125 -4.515625 L 3.6875 -4.109375 C 3.550781 -4.253906 3.394531 -4.367188 3.21875 -4.453125 C 3.050781 -4.535156 2.863281 -4.578125 2.65625 -4.578125 C 2.40625 -4.578125 2.179688 -4.53125 1.984375 -4.4375 C 1.796875 -4.34375 1.628906 -4.207031 1.484375 -4.03125 C 1.347656 -3.851562 1.242188 -3.640625 1.171875 -3.390625 C 1.097656 -3.140625 1.0625 -2.859375 1.0625 -2.546875 C 1.0625 -2.222656 1.097656 -1.929688 1.171875 -1.671875 C 1.242188 -1.421875 1.347656 -1.207031 1.484375 -1.03125 C 1.617188 -0.851562 1.78125 -0.710938 1.96875 -0.609375 C 2.164062 -0.515625 2.382812 -0.46875 2.625 -0.46875 C 2.875 -0.46875 3.085938 -0.515625 3.265625 -0.609375 C 3.453125 -0.710938 3.628906 -0.859375 3.796875 -1.046875 L 4.15625 -0.640625 C 3.945312 -0.410156 3.71875 -0.226562 3.46875 -0.09375 C 3.21875 0.03125 2.929688 0.09375 2.609375 0.09375 Z M 2.609375 0.09375 "/></g></g></g><g fill="#2c3b43" fill-opacity="1"><g transform="translate(197.707858, 215.435998)"><g><path d="M 2.5625 0.09375 C 2.238281 0.09375 1.941406 0.03125 1.671875 -0.09375 C 1.410156 -0.21875 1.1875 -0.394531 1 -0.625 C 0.8125 -0.851562 0.664062 -1.128906 0.5625 -1.453125 C 0.457031 -1.773438 0.40625 -2.140625 0.40625 -2.546875 C 0.40625 -2.953125 0.457031 -3.316406 0.5625 -3.640625 C 0.664062 -3.960938 0.8125 -4.234375 1 -4.453125 C 1.1875 -4.679688 1.410156 -4.851562 1.671875 -4.96875 C 1.941406 -5.082031 2.238281 -5.140625 2.5625 -5.140625 C 2.875 -5.140625 3.160156 -5.078125 3.421875 -4.953125 C 3.691406 -4.835938 3.921875 -4.664062 4.109375 -4.4375 C 4.304688 -4.21875 4.457031 -3.945312 4.5625 -3.625 C 4.664062 -3.3125 4.71875 -2.953125 4.71875 -2.546875 C 4.71875 -2.140625 4.664062 -1.773438 4.5625 -1.453125 C 4.457031 -1.128906 4.304688 -0.851562 4.109375 -0.625 C 3.921875 -0.394531 3.691406 -0.21875 3.421875 -0.09375 C 3.160156 0.03125 2.875 0.09375 2.5625 0.09375 Z M 2.5625 -0.46875 C 2.78125 -0.46875 2.976562 -0.515625 3.15625 -0.609375 C 3.34375 -0.710938 3.503906 -0.851562 3.640625 -1.03125 C 3.773438 -1.21875 3.875 -1.4375 3.9375 -1.6875 C 4.007812 -1.945312 4.046875 -2.234375 4.046875 -2.546875 C 4.046875 -2.859375 4.007812 -3.140625 3.9375 -3.390625 C 3.875 -3.648438 3.773438 -3.863281 3.640625 -4.03125 C 3.503906 -4.207031 3.34375 -4.34375 3.15625 -4.4375 C 2.976562 -4.53125 2.78125 -4.578125 2.5625 -4.578125 C 2.332031 -4.578125 2.125 -4.53125 1.9375 -4.4375 C 1.757812 -4.34375 1.601562 -4.207031 1.46875 -4.03125 C 1.34375 -3.863281 1.242188 -3.648438 1.171875 -3.390625 C 1.097656 -3.140625 1.0625 -2.859375 1.0625 -2.546875 C 1.0625 -2.234375 1.097656 -1.945312 1.171875 -1.6875 C 1.242188 -1.4375 1.34375 -1.21875 1.46875 -1.03125 C 1.601562 -0.851562 1.757812 -0.710938 1.9375 -0.609375 C 2.125 -0.515625 2.332031 -0.46875 2.5625 -0.46875 Z M 2.5625 -0.46875 "/></g></g></g><g fill="#2c3b43" fill-opacity="1"><g transform="translate(203.590718, 215.435998)"><g><path d="M 0.6875 0 L 0.6875 -5.046875 L 1.359375 -5.046875 L 3.1875 -1.875 L 3.734375 -0.828125 L 3.765625 -0.828125 C 3.742188 -1.085938 3.722656 -1.351562 3.703125 -1.625 C 3.691406 -1.90625 3.6875 -2.175781 3.6875 -2.4375 L 3.6875 -5.046875 L 4.296875 -5.046875 L 4.296875 0 L 3.625 0 L 1.796875 -3.1875 L 1.25 -4.21875 L 1.21875 -4.21875 C 1.238281 -3.96875 1.253906 -3.707031 1.265625 -3.4375 C 1.285156 -3.175781 1.296875 -2.910156 1.296875 -2.640625 L 1.296875 0 Z M 0.6875 0 "/></g></g></g><g fill="#2c3b43" fill-opacity="1"><g transform="translate(209.34267, 215.435998)"><g><path d="M 2.09375 0.09375 C 1.738281 0.09375 1.410156 0.0234375 1.109375 -0.109375 C 0.804688 -0.242188 0.546875 -0.425781 0.328125 -0.65625 L 0.703125 -1.09375 C 0.890625 -0.90625 1.101562 -0.753906 1.34375 -0.640625 C 1.582031 -0.523438 1.835938 -0.46875 2.109375 -0.46875 C 2.441406 -0.46875 2.695312 -0.539062 2.875 -0.6875 C 3.0625 -0.84375 3.15625 -1.046875 3.15625 -1.296875 C 3.15625 -1.421875 3.132812 -1.523438 3.09375 -1.609375 C 3.050781 -1.703125 2.988281 -1.78125 2.90625 -1.84375 C 2.832031 -1.914062 2.742188 -1.976562 2.640625 -2.03125 C 2.546875 -2.082031 2.4375 -2.132812 2.3125 -2.1875 L 1.59375 -2.5 C 1.476562 -2.550781 1.359375 -2.613281 1.234375 -2.6875 C 1.109375 -2.757812 0.992188 -2.847656 0.890625 -2.953125 C 0.796875 -3.054688 0.71875 -3.175781 0.65625 -3.3125 C 0.59375 -3.457031 0.5625 -3.625 0.5625 -3.8125 C 0.5625 -4 0.601562 -4.171875 0.6875 -4.328125 C 0.769531 -4.492188 0.878906 -4.640625 1.015625 -4.765625 C 1.160156 -4.890625 1.328125 -4.984375 1.515625 -5.046875 C 1.710938 -5.109375 1.925781 -5.140625 2.15625 -5.140625 C 2.457031 -5.140625 2.734375 -5.082031 2.984375 -4.96875 C 3.242188 -4.851562 3.46875 -4.703125 3.65625 -4.515625 L 3.296875 -4.109375 C 3.148438 -4.253906 2.984375 -4.367188 2.796875 -4.453125 C 2.609375 -4.535156 2.394531 -4.578125 2.15625 -4.578125 C 1.875 -4.578125 1.644531 -4.507812 1.46875 -4.375 C 1.300781 -4.25 1.21875 -4.070312 1.21875 -3.84375 C 1.21875 -3.71875 1.238281 -3.613281 1.28125 -3.53125 C 1.332031 -3.445312 1.398438 -3.375 1.484375 -3.3125 C 1.566406 -3.25 1.65625 -3.191406 1.75 -3.140625 C 1.851562 -3.085938 1.957031 -3.039062 2.0625 -3 L 2.765625 -2.703125 C 2.910156 -2.640625 3.046875 -2.566406 3.171875 -2.484375 C 3.304688 -2.398438 3.421875 -2.304688 3.515625 -2.203125 C 3.609375 -2.097656 3.679688 -1.972656 3.734375 -1.828125 C 3.785156 -1.691406 3.8125 -1.53125 3.8125 -1.34375 C 3.8125 -1.144531 3.769531 -0.957031 3.6875 -0.78125 C 3.613281 -0.613281 3.5 -0.460938 3.34375 -0.328125 C 3.195312 -0.191406 3.019531 -0.0859375 2.8125 -0.015625 C 2.601562 0.0546875 2.363281 0.09375 2.09375 0.09375 Z M 2.09375 0.09375 "/></g></g></g><g fill="#2c3b43" fill-opacity="1"><g transform="translate(214.224519, 215.435998)"><g><path d="M 1.734375 0 L 1.734375 -4.515625 L 0.21875 -4.515625 L 0.21875 -5.046875 L 3.90625 -5.046875 L 3.90625 -4.515625 L 2.390625 -4.515625 L 2.390625 0 Z M 1.734375 0 "/></g></g></g><g fill="#2c3b43" fill-opacity="1"><g transform="translate(219.121769, 215.435998)"><g><path d="M 0.6875 0 L 0.6875 -5.046875 L 2.265625 -5.046875 C 2.523438 -5.046875 2.765625 -5.019531 2.984375 -4.96875 C 3.203125 -4.925781 3.390625 -4.847656 3.546875 -4.734375 C 3.703125 -4.617188 3.820312 -4.472656 3.90625 -4.296875 C 4 -4.117188 4.046875 -3.898438 4.046875 -3.640625 C 4.046875 -3.242188 3.941406 -2.925781 3.734375 -2.6875 C 3.523438 -2.445312 3.25 -2.285156 2.90625 -2.203125 L 4.1875 0 L 3.46875 0 L 2.25 -2.140625 L 1.328125 -2.140625 L 1.328125 0 Z M 1.328125 -2.65625 L 2.1875 -2.65625 C 2.570312 -2.65625 2.867188 -2.734375 3.078125 -2.890625 C 3.296875 -3.054688 3.40625 -3.304688 3.40625 -3.640625 C 3.40625 -3.972656 3.296875 -4.203125 3.078125 -4.328125 C 2.867188 -4.460938 2.570312 -4.53125 2.1875 -4.53125 L 1.328125 -4.53125 Z M 1.328125 -2.65625 "/></g></g></g><g fill="#2c3b43" fill-opacity="1"><g transform="translate(224.273117, 215.435998)"><g><path d="M 2.484375 0.09375 C 2.234375 0.09375 1.992188 0.0546875 1.765625 -0.015625 C 1.546875 -0.0859375 1.351562 -0.207031 1.1875 -0.375 C 1.03125 -0.550781 0.90625 -0.78125 0.8125 -1.0625 C 0.71875 -1.34375 0.671875 -1.6875 0.671875 -2.09375 L 0.671875 -5.046875 L 1.3125 -5.046875 L 1.3125 -2.078125 C 1.3125 -1.773438 1.34375 -1.519531 1.40625 -1.3125 C 1.46875 -1.101562 1.550781 -0.9375 1.65625 -0.8125 C 1.757812 -0.6875 1.878906 -0.597656 2.015625 -0.546875 C 2.160156 -0.492188 2.316406 -0.46875 2.484375 -0.46875 C 2.660156 -0.46875 2.816406 -0.492188 2.953125 -0.546875 C 3.097656 -0.597656 3.222656 -0.6875 3.328125 -0.8125 C 3.441406 -0.9375 3.53125 -1.101562 3.59375 -1.3125 C 3.65625 -1.519531 3.6875 -1.773438 3.6875 -2.078125 L 3.6875 -5.046875 L 4.296875 -5.046875 L 4.296875 -2.09375 C 4.296875 -1.6875 4.25 -1.34375 4.15625 -1.0625 C 4.0625 -0.78125 3.929688 -0.550781 3.765625 -0.375 C 3.609375 -0.207031 3.421875 -0.0859375 3.203125 -0.015625 C 2.984375 0.0546875 2.742188 0.09375 2.484375 0.09375 Z M 2.484375 0.09375 "/></g></g></g><g fill="#2c3b43" fill-opacity="1"><g transform="translate(230.00967, 215.435998)"><g><path d="M 2.609375 0.09375 C 2.285156 0.09375 1.988281 0.0351562 1.71875 -0.078125 C 1.457031 -0.203125 1.226562 -0.375 1.03125 -0.59375 C 0.832031 -0.820312 0.675781 -1.097656 0.5625 -1.421875 C 0.457031 -1.742188 0.40625 -2.113281 0.40625 -2.53125 C 0.40625 -2.9375 0.457031 -3.300781 0.5625 -3.625 C 0.675781 -3.945312 0.832031 -4.21875 1.03125 -4.4375 C 1.238281 -4.664062 1.476562 -4.835938 1.75 -4.953125 C 2.019531 -5.078125 2.316406 -5.140625 2.640625 -5.140625 C 2.953125 -5.140625 3.222656 -5.078125 3.453125 -4.953125 C 3.691406 -4.828125 3.882812 -4.679688 4.03125 -4.515625 L 3.6875 -4.109375 C 3.550781 -4.253906 3.394531 -4.367188 3.21875 -4.453125 C 3.050781 -4.535156 2.863281 -4.578125 2.65625 -4.578125 C 2.40625 -4.578125 2.179688 -4.53125 1.984375 -4.4375 C 1.796875 -4.34375 1.628906 -4.207031 1.484375 -4.03125 C 1.347656 -3.851562 1.242188 -3.640625 1.171875 -3.390625 C 1.097656 -3.140625 1.0625 -2.859375 1.0625 -2.546875 C 1.0625 -2.222656 1.097656 -1.929688 1.171875 -1.671875 C 1.242188 -1.421875 1.347656 -1.207031 1.484375 -1.03125 C 1.617188 -0.851562 1.78125 -0.710938 1.96875 -0.609375 C 2.164062 -0.515625 2.382812 -0.46875 2.625 -0.46875 C 2.875 -0.46875 3.085938 -0.515625 3.265625 -0.609375 C 3.453125 -0.710938 3.628906 -0.859375 3.796875 -1.046875 L 4.15625 -0.640625 C 3.945312 -0.410156 3.71875 -0.226562 3.46875 -0.09375 C 3.21875 0.03125 2.929688 0.09375 2.609375 0.09375 Z M 2.609375 0.09375 "/></g></g></g><g fill="#2c3b43" fill-opacity="1"><g transform="translate(235.176417, 215.435998)"><g><path d="M 1.734375 0 L 1.734375 -4.515625 L 0.21875 -4.515625 L 0.21875 -5.046875 L 3.90625 -5.046875 L 3.90625 -4.515625 L 2.390625 -4.515625 L 2.390625 0 Z M 1.734375 0 "/></g></g></g><g fill="#2c3b43" fill-opacity="1"><g transform="translate(240.073665, 215.435998)"><g><path d="M 0.6875 0 L 0.6875 -5.046875 L 1.328125 -5.046875 L 1.328125 0 Z M 0.6875 0 "/></g></g></g><g fill="#2c3b43" fill-opacity="1"><g transform="translate(242.868786, 215.435998)"><g><path d="M 2.5625 0.09375 C 2.238281 0.09375 1.941406 0.03125 1.671875 -0.09375 C 1.410156 -0.21875 1.1875 -0.394531 1 -0.625 C 0.8125 -0.851562 0.664062 -1.128906 0.5625 -1.453125 C 0.457031 -1.773438 0.40625 -2.140625 0.40625 -2.546875 C 0.40625 -2.953125 0.457031 -3.316406 0.5625 -3.640625 C 0.664062 -3.960938 0.8125 -4.234375 1 -4.453125 C 1.1875 -4.679688 1.410156 -4.851562 1.671875 -4.96875 C 1.941406 -5.082031 2.238281 -5.140625 2.5625 -5.140625 C 2.875 -5.140625 3.160156 -5.078125 3.421875 -4.953125 C 3.691406 -4.835938 3.921875 -4.664062 4.109375 -4.4375 C 4.304688 -4.21875 4.457031 -3.945312 4.5625 -3.625 C 4.664062 -3.3125 4.71875 -2.953125 4.71875 -2.546875 C 4.71875 -2.140625 4.664062 -1.773438 4.5625 -1.453125 C 4.457031 -1.128906 4.304688 -0.851562 4.109375 -0.625 C 3.921875 -0.394531 3.691406 -0.21875 3.421875 -0.09375 C 3.160156 0.03125 2.875 0.09375 2.5625 0.09375 Z M 2.5625 -0.46875 C 2.78125 -0.46875 2.976562 -0.515625 3.15625 -0.609375 C 3.34375 -0.710938 3.503906 -0.851562 3.640625 -1.03125 C 3.773438 -1.21875 3.875 -1.4375 3.9375 -1.6875 C 4.007812 -1.945312 4.046875 -2.234375 4.046875 -2.546875 C 4.046875 -2.859375 4.007812 -3.140625 3.9375 -3.390625 C 3.875 -3.648438 3.773438 -3.863281 3.640625 -4.03125 C 3.503906 -4.207031 3.34375 -4.34375 3.15625 -4.4375 C 2.976562 -4.53125 2.78125 -4.578125 2.5625 -4.578125 C 2.332031 -4.578125 2.125 -4.53125 1.9375 -4.4375 C 1.757812 -4.34375 1.601562 -4.207031 1.46875 -4.03125 C 1.34375 -3.863281 1.242188 -3.648438 1.171875 -3.390625 C 1.097656 -3.140625 1.0625 -2.859375 1.0625 -2.546875 C 1.0625 -2.234375 1.097656 -1.945312 1.171875 -1.6875 C 1.242188 -1.4375 1.34375 -1.21875 1.46875 -1.03125 C 1.601562 -0.851562 1.757812 -0.710938 1.9375 -0.609375 C 2.125 -0.515625 2.332031 -0.46875 2.5625 -0.46875 Z M 2.5625 -0.46875 "/></g></g></g><g fill="#2c3b43" fill-opacity="1"><g transform="translate(248.751643, 215.435998)"><g><path d="M 0.6875 0 L 0.6875 -5.046875 L 1.359375 -5.046875 L 3.1875 -1.875 L 3.734375 -0.828125 L 3.765625 -0.828125 C 3.742188 -1.085938 3.722656 -1.351562 3.703125 -1.625 C 3.691406 -1.90625 3.6875 -2.175781 3.6875 -2.4375 L 3.6875 -5.046875 L 4.296875 -5.046875 L 4.296875 0 L 3.625 0 L 1.796875 -3.1875 L 1.25 -4.21875 L 1.21875 -4.21875 C 1.238281 -3.96875 1.253906 -3.707031 1.265625 -3.4375 C 1.285156 -3.175781 1.296875 -2.910156 1.296875 -2.640625 L 1.296875 0 Z M 0.6875 0 "/></g></g></g><g fill="#2c3b43" fill-opacity="1"><g transform="translate(254.503594, 215.435998)"><g/></g></g><g fill="#2c3b43" fill-opacity="1"><g transform="translate(256.813616, 215.435998)"><g><path d="M 0.6875 0 L 0.6875 -5.046875 L 3.609375 -5.046875 L 3.609375 -4.515625 L 1.328125 -4.515625 L 1.328125 -2.921875 L 3.25 -2.921875 L 3.25 -2.375 L 1.328125 -2.375 L 1.328125 -0.546875 L 3.6875 -0.546875 L 3.6875 0 Z M 0.6875 0 "/></g></g></g><g fill="#2c3b43" fill-opacity="1"><g transform="translate(261.641562, 215.435998)"><g><path d="M 0.109375 0 L 1.59375 -2.609375 L 0.21875 -5.046875 L 0.921875 -5.046875 L 1.609375 -3.765625 C 1.671875 -3.640625 1.734375 -3.519531 1.796875 -3.40625 C 1.859375 -3.300781 1.925781 -3.175781 2 -3.03125 L 2.03125 -3.03125 C 2.101562 -3.175781 2.164062 -3.300781 2.21875 -3.40625 C 2.269531 -3.519531 2.328125 -3.640625 2.390625 -3.765625 L 3.0625 -5.046875 L 3.75 -5.046875 L 2.359375 -2.578125 L 3.84375 0 L 3.125 0 L 2.390625 -1.359375 C 2.316406 -1.484375 2.242188 -1.609375 2.171875 -1.734375 C 2.109375 -1.867188 2.035156 -2.015625 1.953125 -2.171875 L 1.921875 -2.171875 C 1.847656 -2.015625 1.78125 -1.867188 1.71875 -1.734375 C 1.65625 -1.609375 1.59375 -1.484375 1.53125 -1.359375 L 0.796875 0 Z M 0.109375 0 "/></g></g></g><g fill="#2c3b43" fill-opacity="1"><g transform="translate(266.361699, 215.435998)"><g><path d="M 0.6875 0 L 0.6875 -5.046875 L 3.609375 -5.046875 L 3.609375 -4.515625 L 1.328125 -4.515625 L 1.328125 -2.921875 L 3.25 -2.921875 L 3.25 -2.375 L 1.328125 -2.375 L 1.328125 -0.546875 L 3.6875 -0.546875 L 3.6875 0 Z M 0.6875 0 "/></g></g></g><g fill="#2c3b43" fill-opacity="1"><g transform="translate(271.189645, 215.435998)"><g><path d="M 2.609375 0.09375 C 2.285156 0.09375 1.988281 0.0351562 1.71875 -0.078125 C 1.457031 -0.203125 1.226562 -0.375 1.03125 -0.59375 C 0.832031 -0.820312 0.675781 -1.097656 0.5625 -1.421875 C 0.457031 -1.742188 0.40625 -2.113281 0.40625 -2.53125 C 0.40625 -2.9375 0.457031 -3.300781 0.5625 -3.625 C 0.675781 -3.945312 0.832031 -4.21875 1.03125 -4.4375 C 1.238281 -4.664062 1.476562 -4.835938 1.75 -4.953125 C 2.019531 -5.078125 2.316406 -5.140625 2.640625 -5.140625 C 2.953125 -5.140625 3.222656 -5.078125 3.453125 -4.953125 C 3.691406 -4.828125 3.882812 -4.679688 4.03125 -4.515625 L 3.6875 -4.109375 C 3.550781 -4.253906 3.394531 -4.367188 3.21875 -4.453125 C 3.050781 -4.535156 2.863281 -4.578125 2.65625 -4.578125 C 2.40625 -4.578125 2.179688 -4.53125 1.984375 -4.4375 C 1.796875 -4.34375 1.628906 -4.207031 1.484375 -4.03125 C 1.347656 -3.851562 1.242188 -3.640625 1.171875 -3.390625 C 1.097656 -3.140625 1.0625 -2.859375 1.0625 -2.546875 C 1.0625 -2.222656 1.097656 -1.929688 1.171875 -1.671875 C 1.242188 -1.421875 1.347656 -1.207031 1.484375 -1.03125 C 1.617188 -0.851562 1.78125 -0.710938 1.96875 -0.609375 C 2.164062 -0.515625 2.382812 -0.46875 2.625 -0.46875 C 2.875 -0.46875 3.085938 -0.515625 3.265625 -0.609375 C 3.453125 -0.710938 3.628906 -0.859375 3.796875 -1.046875 L 4.15625 -0.640625 C 3.945312 -0.410156 3.71875 -0.226562 3.46875 -0.09375 C 3.21875 0.03125 2.929688 0.09375 2.609375 0.09375 Z M 2.609375 0.09375 "/></g></g></g><g fill="#2c3b43" fill-opacity="1"><g transform="translate(276.356398, 215.435998)"><g><path d="M 2.484375 0.09375 C 2.234375 0.09375 1.992188 0.0546875 1.765625 -0.015625 C 1.546875 -0.0859375 1.351562 -0.207031 1.1875 -0.375 C 1.03125 -0.550781 0.90625 -0.78125 0.8125 -1.0625 C 0.71875 -1.34375 0.671875 -1.6875 0.671875 -2.09375 L 0.671875 -5.046875 L 1.3125 -5.046875 L 1.3125 -2.078125 C 1.3125 -1.773438 1.34375 -1.519531 1.40625 -1.3125 C 1.46875 -1.101562 1.550781 -0.9375 1.65625 -0.8125 C 1.757812 -0.6875 1.878906 -0.597656 2.015625 -0.546875 C 2.160156 -0.492188 2.316406 -0.46875 2.484375 -0.46875 C 2.660156 -0.46875 2.816406 -0.492188 2.953125 -0.546875 C 3.097656 -0.597656 3.222656 -0.6875 3.328125 -0.8125 C 3.441406 -0.9375 3.53125 -1.101562 3.59375 -1.3125 C 3.65625 -1.519531 3.6875 -1.773438 3.6875 -2.078125 L 3.6875 -5.046875 L 4.296875 -5.046875 L 4.296875 -2.09375 C 4.296875 -1.6875 4.25 -1.34375 4.15625 -1.0625 C 4.0625 -0.78125 3.929688 -0.550781 3.765625 -0.375 C 3.609375 -0.207031 3.421875 -0.0859375 3.203125 -0.015625 C 2.984375 0.0546875 2.742188 0.09375 2.484375 0.09375 Z M 2.484375 0.09375 "/></g></g></g><g fill="#2c3b43" fill-opacity="1"><g transform="translate(282.092947, 215.435998)"><g><path d="M 1.734375 0 L 1.734375 -4.515625 L 0.21875 -4.515625 L 0.21875 -5.046875 L 3.90625 -5.046875 L 3.90625 -4.515625 L 2.390625 -4.515625 L 2.390625 0 Z M 1.734375 0 "/></g></g></g><g fill="#2c3b43" fill-opacity="1"><g transform="translate(286.990195, 215.435998)"><g><path d="M 0.6875 0 L 0.6875 -5.046875 L 1.328125 -5.046875 L 1.328125 0 Z M 0.6875 0 "/></g></g></g><g fill="#2c3b43" fill-opacity="1"><g transform="translate(289.785316, 215.435998)"><g><path d="M 1.625 0 L 0 -5.046875 L 0.6875 -5.046875 L 1.5 -2.328125 C 1.59375 -2.023438 1.671875 -1.742188 1.734375 -1.484375 C 1.804688 -1.222656 1.890625 -0.945312 1.984375 -0.65625 L 2.015625 -0.65625 C 2.109375 -0.945312 2.191406 -1.222656 2.265625 -1.484375 C 2.335938 -1.742188 2.414062 -2.023438 2.5 -2.328125 L 3.3125 -5.046875 L 3.96875 -5.046875 L 2.359375 0 Z M 1.625 0 "/></g></g></g><g fill="#2c3b43" fill-opacity="1"><g transform="translate(294.520854, 215.435998)"><g><path d="M 0.6875 0 L 0.6875 -5.046875 L 3.609375 -5.046875 L 3.609375 -4.515625 L 1.328125 -4.515625 L 1.328125 -2.921875 L 3.25 -2.921875 L 3.25 -2.375 L 1.328125 -2.375 L 1.328125 -0.546875 L 3.6875 -0.546875 L 3.6875 0 Z M 0.6875 0 "/></g></g></g><g clip-path="url(#ae49c3bd4b)"><path fill="#b83143" d="M 212.847656 164.03125 L 281.355469 164.03125 L 281.355469 169.9375 L 212.847656 169.9375 Z M 212.847656 164.03125 " fill-opacity="1" fill-rule="nonzero"/></g></svg>